<svg xmlns="http://www.w3.org/2000/svg" xmlns:xlink="http://www.w3.org/1999/xlink" viewBox="0 0 127 110.167">
  <defs>
    <style>
      .cls-1 {
        fill: #e33fc8;
      }

      .cls-2 {
        fill: #fff;
        stroke: #f6f6f6;
      }

      .cls-3 {
        fill: #eb74d7;
      }

      .cls-4 {
        filter: url(#Path_21);
      }
    </style>
    <filter id="Path_21" x="0" y="0" width="127" height="110.167" filterUnits="userSpaceOnUse">
      <feOffset dy="5" input="SourceAlpha"/>
      <feGaussianBlur stdDeviation="5" result="blur"/>
      <feFlood flood-opacity="0.078"/>
      <feComposite operator="in" in2="blur"/>
      <feComposite in="SourceGraphic"/>
    </filter>
  </defs>
  <g id="learn" transform="translate(-2063.5 -1378.59)">
    <path id="Path_22" data-name="Path 22" class="cls-1" d="M2126.676,1481.5a356.517,356.517,0,0,0-49.676,0v-78h100v78A436.621,436.621,0,0,0,2126.676,1481.5Z" transform="translate(0 -11.233)"/>
    <g class="cls-4" transform="matrix(1, 0, 0, 1, 2063.5, 1378.59)">
      <path id="Path_21-2" data-name="Path 21" class="cls-2" d="M2078,1403.846v77.024s25.392-6.024,47.724,0c21.923-7.315,48.276,0,48.276,0v-77.024s-24.038-3.729-48.276,0C2101.893,1399.4,2078,1403.846,2078,1403.846Z" transform="translate(-2062.5 -1391.36)"/>
    </g>
    <path id="lightbulb" class="cls-3" d="M6.822,32.268A2.274,2.274,0,0,0,7.2,33.525l1.214,1.825a2.272,2.272,0,0,0,1.892,1.014h4.383a2.272,2.272,0,0,0,1.892-1.014L17.8,33.525a2.272,2.272,0,0,0,.381-1.256l0-2.724H6.819l0,2.724ZM0,12.5a12.43,12.43,0,0,0,3.094,8.223,20.41,20.41,0,0,1,3.708,6.5c0,.018,0,.037.008.055H18.19c0-.018,0-.036.008-.055a20.41,20.41,0,0,1,3.708-6.5A12.5,12.5,0,1,0,0,12.5ZM12.5,6.817A5.688,5.688,0,0,0,6.818,12.5a1.136,1.136,0,1,1-2.273,0A7.963,7.963,0,0,1,12.5,4.545a1.136,1.136,0,1,1,0,2.273Z" transform="translate(2115 1409.555)"/>
  </g>
</svg>
